<?xml version="1.0" encoding="UTF-8" standalone="no"?>
<!DOCTYPE svg PUBLIC "-//W3C//DTD SVG 1.1//EN" "http://www.w3.org/Graphics/SVG/1.1/DTD/svg11.dtd">
<svg width="100%" height="100%" viewBox="0 0 1024 129" version="1.1" xmlns="http://www.w3.org/2000/svg" xmlns:xlink="http://www.w3.org/1999/xlink" xml:space="preserve" xmlns:serif="http://www.serif.com/" style="fill-rule:evenodd;clip-rule:evenodd;stroke-linejoin:round;stroke-miterlimit:2;">
    <rect id="Artboard1" x="0" y="0" width="1024" height="128.392" style="fill:none;"/>
    <clipPath id="_clip1">
        <rect id="Artboard11" serif:id="Artboard1" x="0" y="0" width="1024" height="128.392"/>
    </clipPath>
    <g clip-path="url(#_clip1)">
        <g transform="matrix(0.71837,0,0,0.71837,-53.8538,-180.777)">
            <path d="M219.358,399.704C219.358,401.434 219.318,403.164 219.24,404.894C219.161,406.625 219.043,408.433 218.886,410.321C218.728,411.422 218.611,412.523 218.532,413.624C218.453,414.725 218.414,415.905 218.414,417.163C217.627,418.736 216.369,419.837 214.639,420.466C212.909,421.095 211.218,421.567 209.566,421.882C207.915,422.196 206.775,422.904 206.145,424.005C204.887,424.005 203.904,423.73 203.196,423.179C202.488,422.629 201.899,422.039 201.427,421.41C201.112,420.938 200.758,420.545 200.365,420.23C199.972,419.915 199.461,419.837 198.831,419.994C193.326,415.433 188.057,410.517 183.024,405.248C177.991,399.979 172.839,394.907 167.57,390.031C162.301,385.155 156.364,380.987 149.757,377.526C148.184,376.74 147.241,375.285 146.926,373.161C146.612,371.038 145.432,369.426 143.387,368.325C145.275,365.965 146.73,364.629 147.752,364.314C148.774,363.999 149.561,363.527 150.111,362.898C150.662,362.269 151.252,360.618 151.881,357.944C153.296,358.258 154.633,357.944 155.892,357C157.15,356.056 158.487,354.877 159.902,353.461C161.633,351.888 163.52,350.315 165.565,348.742C167.61,347.169 170.205,346.383 173.351,346.383C176.968,344.338 180.783,342.687 184.793,341.428C188.804,340.17 193.012,340.878 197.416,343.552C197.73,342.765 197.809,341.861 197.652,340.839C197.494,339.816 197.337,338.755 197.18,337.654C196.865,336.552 196.708,335.766 196.708,335.294C196.393,332.935 196.276,330.497 196.354,327.98C196.433,325.464 196.551,323.026 196.708,320.666C196.708,318.936 196.747,317.206 196.826,315.476C196.905,313.746 196.944,312.015 196.944,310.285C196.944,308.555 196.865,306.825 196.708,305.095L196.236,299.904C195.922,296.287 195.646,292.63 195.41,288.933C195.174,285.237 195.45,281.659 196.236,278.198C195.292,277.412 194.742,276.272 194.585,274.777C194.427,273.283 194.191,271.985 193.877,270.884C188.057,275.446 183.024,280.754 178.777,286.81C174.53,292.866 170.126,299.118 165.565,305.567C160.846,312.015 156.049,318.543 151.173,325.149C146.297,331.755 140.949,337.889 135.13,343.552C134.972,344.181 133.989,345.99 132.18,348.978C130.372,351.967 128.248,355.27 125.81,358.887C123.372,362.505 121.131,365.612 119.086,368.207C117.041,370.802 115.704,372.1 115.075,372.1C111.458,379.492 106.739,387.042 100.919,394.749C95.1,402.456 89.201,409.613 83.224,416.219C82.595,416.062 82.045,416.062 81.573,416.219C81.101,416.376 80.708,416.534 80.393,416.691C79.764,416.848 79.174,416.966 78.624,417.045C78.073,417.124 77.405,417.084 76.618,416.927C76.304,416.141 76.146,415.511 76.146,415.04C76.146,414.568 75.753,414.253 74.967,414.096C76.068,408.119 78.191,402.85 81.337,398.288C84.483,393.727 87.864,389.244 91.482,384.84C92.111,382.323 93.094,380.279 94.431,378.706L98.442,373.987C99.779,372.414 100.683,370.448 101.155,368.089C102.256,366.831 103.986,364.629 106.346,361.483C108.705,358.337 111.222,354.877 113.896,351.102C116.569,347.327 118.929,343.748 120.974,340.367C123.018,336.985 124.198,334.586 124.513,333.171C125.771,333.643 126.715,333.249 127.344,331.991C127.973,330.733 128.13,330.025 127.816,329.868C133.006,324.677 138.039,317.835 142.915,309.342C143.387,309.027 143.938,308.948 144.567,309.106L145.275,309.106C145.117,308.162 145.235,307.375 145.629,306.746C146.022,306.117 146.454,305.567 146.926,305.095C147.555,304.466 148.145,303.797 148.696,303.089C149.246,302.382 149.6,301.398 149.757,300.14C153.375,296.994 157.465,292.315 162.026,286.102C166.587,279.889 171.07,274.266 175.474,269.233C175.631,269.233 175.867,269.312 176.182,269.469C176.654,269.783 177.126,269.941 177.597,269.941C178.069,269.941 178.305,269.233 178.305,267.817C179.092,265.615 180.783,263.453 183.378,261.329C185.973,259.206 188.372,257.436 190.574,256.021C194.191,256.178 197.652,256.414 200.955,256.728C204.258,257.043 207.325,258.537 210.156,261.211C209.999,262.784 210.078,264.082 210.392,265.104C210.707,266.126 211.1,267.11 211.572,268.053C212.044,269.312 212.437,270.727 212.751,272.3C213.066,273.873 212.751,276.075 211.808,278.906C212.437,279.535 212.948,280.243 213.341,281.03C213.735,281.816 213.538,282.76 212.751,283.861C213.223,284.333 213.577,285.984 213.813,288.815C214.049,291.647 214.246,294.871 214.403,298.489C214.56,302.106 214.56,305.37 214.403,308.28C214.246,311.19 214.01,312.802 213.695,313.116C214.167,315.633 214.482,318.858 214.639,322.79C214.796,326.722 215.425,329.632 216.526,331.519C215.583,333.407 215.111,335.255 215.111,337.064C215.111,338.872 215.268,340.642 215.583,342.372C215.74,343.945 215.858,345.557 215.937,347.209C216.015,348.86 215.74,350.473 215.111,352.045C215.268,352.045 215.543,352.085 215.937,352.163C216.33,352.242 216.841,352.36 217.47,352.517C216.841,353.461 216.487,354.287 216.408,354.995C216.33,355.702 216.369,356.371 216.526,357C216.684,357.629 216.723,358.219 216.644,358.77C216.566,359.32 216.212,359.988 215.583,360.775C216.212,363.921 216.802,367.853 217.352,372.572C217.903,377.29 218.335,382.088 218.65,386.964C218.964,391.839 219.2,396.086 219.358,399.704ZM201.663,387.199C200.719,385.941 200.208,384.329 200.129,382.363C200.05,380.397 200.09,378.47 200.247,376.582C200.247,375.481 200.286,374.38 200.365,373.279C200.444,372.178 200.404,371.156 200.247,370.212C200.09,369.269 199.736,367.932 199.185,366.201C198.635,364.471 197.966,362.977 197.18,361.719C196.393,360.46 195.528,360.067 194.585,360.539C190.652,362.426 186.956,364.864 183.496,367.853C180.035,370.841 176.496,373.594 172.879,376.111C173.508,377.054 173.508,378.234 172.879,379.65L172.879,380.121C176.968,384.211 181.254,388.143 185.737,391.918C190.22,395.693 195.135,399.153 200.483,402.299C200.798,401.041 200.955,399.822 200.955,398.642C200.955,397.463 200.876,396.322 200.719,395.221C200.562,393.806 200.483,392.429 200.483,391.092C200.483,389.755 200.876,388.458 201.663,387.199ZM321.281,269.705C320.966,270.334 320.809,270.963 320.809,271.592C320.809,271.907 320.77,272.261 320.691,272.654C320.612,273.047 320.337,273.48 319.865,273.952C320.022,278.356 319.472,283.389 318.214,289.051C316.955,294.714 315.54,300.14 313.967,305.331C313.023,308.791 312.158,312.015 311.372,315.004C310.585,317.992 310.113,320.588 309.956,322.79C308.226,325.778 307.164,329.199 306.771,333.053C306.378,336.906 305.395,341.35 303.822,346.383C303.507,347.484 302.917,349.214 302.052,351.574C301.187,353.933 300.125,355.113 298.867,355.113C298.71,357.472 298.277,360.578 297.569,364.432C296.862,368.285 296.115,372.257 295.328,376.347C294.384,381.38 293.519,386.138 292.733,390.62C291.946,395.103 291.632,398.288 291.789,400.176C291.946,401.277 292.497,402.221 293.441,403.007C294.384,403.793 295.013,404.816 295.328,406.074C298.317,407.647 300.715,408.433 302.524,408.433C304.333,408.433 305.945,408.276 307.361,407.962C308.776,407.647 310.192,407.529 311.607,407.608C313.023,407.686 314.911,408.669 317.27,410.557C317.427,411.501 317.348,412.248 317.034,412.798C316.719,413.349 316.326,413.86 315.854,414.332C315.54,414.646 315.225,415 314.911,415.393C314.596,415.787 314.36,416.298 314.203,416.927C312.787,417.084 311.411,417.32 310.074,417.635C308.737,417.949 307.439,418.264 306.181,418.579C302.878,419.365 299.418,419.955 295.8,420.348C292.182,420.741 287.778,419.837 282.588,417.635C279.599,414.017 277.083,410.203 275.038,406.192C272.993,402.181 272.521,397.03 273.622,390.738C273.78,389.795 274.133,387.789 274.684,384.722C275.234,381.655 275.864,378.588 276.571,375.521C277.279,372.454 277.948,370.684 278.577,370.212C277.319,368.954 276.768,367.853 276.925,366.909C277.083,365.965 277.476,364.943 278.105,363.842C278.42,362.898 278.773,361.955 279.167,361.011C279.56,360.067 279.599,359.045 279.285,357.944C280.386,357.472 281.329,356.371 282.116,354.641C282.902,352.911 283.453,351.141 283.767,349.332C284.082,347.523 284.082,346.226 283.767,345.439C285.34,340.721 287.031,334.862 288.84,327.862C290.649,320.863 292.34,313.628 293.912,306.156C295.485,298.685 296.665,291.843 297.451,285.63C298.238,279.417 298.395,274.659 297.923,271.356C297.137,269.783 295.879,268.997 294.148,268.997C292.418,268.997 290.452,269.233 288.25,269.705C285.576,270.177 282.548,270.491 279.167,270.649C275.785,270.806 272.364,269.783 268.904,267.581C270.634,267.267 272.325,266.913 273.976,266.52C275.628,266.126 277.24,265.773 278.813,265.458C285.104,264.042 290.727,263.02 295.682,262.391C300.637,261.762 305.198,261.919 309.366,262.863C313.534,263.806 317.506,266.087 321.281,269.705ZM408.576,393.334C407.318,396.322 406.57,399.468 406.335,402.771C406.099,406.074 406.531,408.591 407.632,410.321C405.273,412.523 402.166,414.056 398.313,414.922C394.459,415.787 390.566,416.376 386.634,416.691C382.702,417.006 379.242,417.635 376.253,418.579C374.366,418.264 372.596,417.635 370.945,416.691C369.293,415.747 367.602,414.882 365.872,414.096C364.614,411.736 363.906,408.394 363.749,404.069C363.591,399.743 363.945,394.985 364.81,389.795C365.675,384.604 366.894,379.492 368.467,374.459C368.467,374.144 368.978,372.336 370.001,369.033C371.023,365.73 372.242,361.876 373.658,357.472C375.073,353.068 376.41,349.018 377.669,345.321C378.927,341.625 379.871,339.305 380.5,338.361C381.286,335.373 382.348,332.856 383.685,330.811C385.022,328.767 386.32,326.722 387.578,324.677C388.836,322.632 389.701,320.116 390.173,317.127C391.903,316.341 392.926,315.436 393.24,314.414C393.555,313.392 394.263,312.173 395.364,310.757C396.465,313.588 396.819,316.577 396.425,319.723C396.032,322.868 395.521,325.857 394.892,328.688C394.735,329.474 394.617,330.182 394.538,330.811C394.459,331.441 394.341,332.07 394.184,332.699C394.499,333.643 394.105,335.923 393.004,339.541C391.903,343.159 390.645,347.327 389.229,352.045C387.814,356.135 386.438,360.342 385.101,364.668C383.764,368.993 382.741,372.965 382.033,376.582C381.326,380.2 381.129,382.874 381.444,384.604C381.286,385.862 381.05,387.671 380.736,390.031C380.421,392.39 380.107,394.12 379.792,395.221C381.208,396.479 383.41,397.069 386.398,396.991C389.387,396.912 392.611,396.558 396.071,395.929C399.532,395.3 402.599,394.671 405.273,394.041C405.902,393.884 406.492,393.766 407.042,393.688C407.593,393.609 408.104,393.491 408.576,393.334ZM426.035,280.558C425.72,281.659 425.327,282.76 424.855,283.861C424.383,284.962 424.148,286.377 424.148,288.108C423.518,288.108 422.653,288.776 421.552,290.113C420.451,291.45 418.682,292.748 416.244,294.006C413.806,295.264 409.992,295.893 404.801,295.893C402.756,294.792 401.183,293.298 400.082,291.411C398.981,289.523 397.802,287.793 396.543,286.22C397.33,279.299 399.021,274.03 401.616,270.413C404.211,266.795 408.969,266.087 415.89,268.289C417.463,268.132 418.957,268.879 420.373,270.531C421.788,272.182 423.046,274.03 424.148,276.075C425.249,278.12 425.878,279.614 426.035,280.558ZM549.9,316.655C546.282,319.801 541.957,322.003 536.923,323.262C531.89,324.52 526.385,326.486 520.408,329.16C519.307,329.632 517.105,330.497 513.802,331.755C510.499,333.013 506.685,334.547 502.359,336.356C498.034,338.165 493.748,340.131 489.501,342.254C485.254,344.378 481.597,346.619 478.53,348.978C475.463,351.338 473.536,353.618 472.75,355.82C472.121,357.708 472.514,359.871 473.929,362.309C475.345,364.746 477.114,367.066 479.238,369.269C481.361,371.471 483.131,373.279 484.546,374.695L485.726,375.875C486.041,376.347 486.119,377.054 485.962,377.998C485.805,378.942 485.962,379.65 486.434,380.121C489.894,384.211 494.062,387.553 498.938,390.149C503.814,392.744 508.218,395.85 512.151,399.468C513.723,398.052 515.807,397.698 518.403,398.406C520.998,399.114 523.318,399.94 525.363,400.884C526.778,401.513 527.801,401.906 528.43,402.063C530.317,404.737 531.025,407.018 530.553,408.905C530.081,410.793 529.374,412.444 528.43,413.86L527.486,415.747C527.172,416.376 527.014,417.006 527.014,417.635C524.34,418.893 521.195,419.522 517.577,419.522C511.915,419.365 506.095,417.674 500.118,414.45C494.141,411.225 488.557,407.372 483.367,402.889C478.176,398.406 473.772,394.277 470.154,390.503C468.11,388.3 465.908,385.509 463.548,382.127C461.189,378.745 459.105,375.206 457.296,371.51C455.487,367.814 454.347,364.314 453.875,361.011C453.089,355.191 453.875,349.961 456.234,345.321C458.594,340.681 461.504,337.024 464.964,334.35C467.795,333.092 471.727,331.126 476.761,328.452C481.794,325.778 487.26,323.104 493.158,320.43C499.056,317.756 504.443,315.869 509.319,314.768C510.892,314.453 513.448,313.982 516.987,313.352C520.526,312.723 524.38,312.251 528.548,311.937C532.716,311.622 536.727,311.78 540.58,312.409C544.434,313.038 547.54,314.453 549.9,316.655ZM678.955,354.877C679.112,357.708 678.09,360.028 675.888,361.837C673.686,363.645 670.894,365.1 667.512,366.201C664.131,367.302 660.631,368.089 657.013,368.561C653.396,369.033 650.25,369.347 647.576,369.504C643.958,369.662 640.695,369.426 637.785,368.797C634.875,368.168 632.005,367.538 629.173,366.909C628.387,366.752 627.6,366.555 626.814,366.319C626.028,366.083 625.241,365.887 624.455,365.73C620.994,364.943 617.101,364.196 612.776,363.488C608.451,362.78 605.03,361.64 602.513,360.067C601.097,361.64 600.154,363.96 599.682,367.027C599.21,370.094 599.17,373.319 599.564,376.7C599.957,380.082 600.743,383.071 601.923,385.666C603.103,388.261 604.558,389.795 606.288,390.267C608.49,390.581 610.417,391.328 612.068,392.508C613.72,393.688 615.332,394.985 616.905,396.401C618.95,398.131 621.112,399.743 623.393,401.237C625.674,402.732 628.466,403.243 631.769,402.771C632.87,405.13 633.853,406.349 634.718,406.428C635.583,406.507 636.487,406.389 637.431,406.074C638.217,405.76 638.847,405.602 639.318,405.602C641.52,406.231 644.116,407.568 647.104,409.613C650.093,411.658 652.137,414.096 653.238,416.927C651.036,418.814 648.756,419.837 646.396,419.994C644.037,420.151 641.52,420.151 638.847,419.994C636.959,419.837 634.993,419.758 632.948,419.758C630.903,419.758 628.78,419.994 626.578,420.466C625.949,419.208 624.809,418.461 623.157,418.225C621.505,417.989 619.736,417.556 617.849,416.927C615.961,416.298 614.31,414.804 612.894,412.444C607.389,411.186 602.277,408.315 597.558,403.833C592.84,399.35 588.514,395.064 584.582,390.974C583.953,388.772 583.284,386.649 582.577,384.604C581.869,382.559 580.65,380.987 578.92,379.886C579.234,378.155 579.273,376.818 579.038,375.875C578.802,374.931 578.526,373.987 578.212,373.043C578.054,372.729 577.897,372.375 577.74,371.982C577.583,371.589 577.425,371.077 577.268,370.448C579.156,363.056 582.065,355.82 585.998,348.742C589.93,341.664 594.884,335.058 600.861,328.924C603.221,326.407 606.091,323.773 609.473,321.02C612.855,318.268 616.394,315.79 620.09,313.588C623.786,311.386 627.207,310.128 630.353,309.813C631.611,309.656 632.83,309.695 634.01,309.931C635.19,310.167 636.409,310.443 637.667,310.757C639.24,311.229 640.852,311.583 642.504,311.819C644.155,312.055 645.846,311.858 647.576,311.229C652.295,314.217 656.699,317.127 660.788,319.959C664.878,322.79 667.316,326.801 668.102,331.991C670.619,333.092 672.31,335.098 673.175,338.007C674.04,340.917 675.259,343.552 676.832,345.911C675.259,347.169 674.669,348.9 675.062,351.102C675.456,353.304 676.753,354.562 678.955,354.877ZM655.126,350.63C655.598,348.428 655.362,346.265 654.418,344.142C653.474,342.018 652.373,339.934 651.115,337.889C650.329,336.474 649.66,335.176 649.11,333.997C648.559,332.817 648.205,331.677 648.048,330.576C645.846,330.261 644.116,329.435 642.857,328.098C641.599,326.761 639.869,325.621 637.667,324.677C630.432,327.823 623.629,331.952 617.259,337.064C610.889,342.176 606.288,348.349 603.457,355.584C607.232,354.798 611.282,354.405 615.607,354.405C619.933,354.405 624.219,354.483 628.466,354.641C632.87,354.798 637.116,354.877 641.206,354.877C645.295,354.877 648.913,354.405 652.059,353.461C652.059,352.045 652.491,351.416 653.356,351.574C654.222,351.731 654.811,351.416 655.126,350.63ZM818.863,270.649C816.19,274.738 813.398,279.299 810.488,284.333C807.578,289.366 804.786,294.281 802.112,299.078C799.438,303.876 796.922,308.005 794.562,311.465L793.619,312.881C791.259,314.453 788.585,317.56 785.597,322.2C782.608,326.84 779.305,331.991 775.688,337.654C772.07,343.316 767.981,348.585 763.419,353.461C761.06,353.776 759.133,354.798 757.639,356.528C756.145,358.258 754.729,360.264 753.392,362.544C752.055,364.825 750.64,366.909 749.145,368.797C747.651,370.684 745.803,371.942 743.601,372.572C745.488,364.235 747.887,356.764 750.797,350.158C753.707,343.552 756.813,337.142 760.116,330.929C763.419,324.717 766.408,318.228 769.082,311.465L770.025,309.106C770.34,308.319 770.576,307.533 770.733,306.746C773.564,306.117 775.452,304.505 776.396,301.91C777.339,299.314 778.676,297.23 780.406,295.657C779.777,294.871 778.834,295.186 777.575,296.601L776.278,297.899C775.884,298.292 775.452,298.41 774.98,298.253C775.137,297.781 775.412,297.152 775.806,296.365C776.199,295.579 776.71,294.792 777.339,294.006C778.283,292.276 779.187,290.546 780.052,288.815C780.918,287.085 781.036,285.984 780.406,285.512C782.608,281.895 784.575,278.041 786.305,273.952C788.035,269.862 789.765,265.851 791.495,261.919C793.54,261.133 795.624,260.346 797.747,259.56C799.871,258.773 801.719,257.829 803.292,256.728C806.123,257.043 808.836,257.594 811.432,258.38C814.027,259.166 816.032,260.503 817.448,262.391C818.863,264.278 819.335,267.031 818.863,270.649ZM745.488,395.457C745.331,396.558 745.292,397.698 745.37,398.878C745.449,400.058 745.567,401.277 745.724,402.535C746.039,405.209 746.117,407.804 745.96,410.321C745.803,412.837 744.23,415.275 741.242,417.635C739.983,418.736 738.41,419.326 736.523,419.404L730.86,419.64C728.973,419.719 727.243,420.309 725.67,421.41C723.625,420.938 721.698,419.955 719.89,418.461C718.081,416.966 716.547,415.197 715.289,413.152C714.66,412.051 713.913,410.478 713.048,408.433C712.182,406.389 711.829,404.147 711.986,401.709C712.143,399.271 713.244,397.187 715.289,395.457C716.547,392.626 718.395,390.66 720.833,389.559C723.271,388.458 725.985,387.907 728.973,387.907C732.433,388.065 735.776,388.812 739,390.149C742.225,391.486 744.387,393.255 745.488,395.457ZM1062.58,349.686C1061.48,351.574 1059.32,353.972 1056.09,356.882C1052.87,359.792 1049.41,362.348 1045.71,364.55C1042.02,366.752 1038.83,368.01 1036.16,368.325C1037.57,374.616 1039.5,380.082 1041.94,384.722C1044.38,389.362 1045.99,394.041 1046.78,398.76C1047.09,399.232 1047.56,400.097 1048.19,401.355C1049.61,404.029 1051.14,407.136 1052.79,410.675C1054.44,414.214 1055.7,417.713 1056.57,421.174C1057.43,424.634 1057.39,427.701 1056.45,430.375C1055.03,429.274 1053.77,428.724 1052.67,428.724C1051.57,428.724 1050.47,428.802 1049.37,428.96C1047.95,429.117 1046.54,429.038 1045.12,428.724C1043.71,428.409 1042.06,426.522 1040.17,423.061C1039.22,421.174 1038.24,418.736 1037.22,415.747C1036.2,412.759 1035.17,409.692 1034.15,406.546C1033.13,403.4 1032.07,400.805 1030.97,398.76C1028.61,394.199 1026.25,390.109 1023.89,386.492C1021.53,382.874 1019.41,379.807 1017.52,377.29C1016.42,377.448 1014.96,377.801 1013.15,378.352C1011.35,378.902 1009.34,379.571 1007.14,380.357C1002.58,381.773 997.897,383.149 993.1,384.486C988.303,385.823 985.039,386.177 983.309,385.548C982.522,385.705 982.286,386.098 982.601,386.728C982.758,387.199 982.601,387.435 982.129,387.435C980.871,387.593 979.455,387.278 977.882,386.492C976.309,385.705 974.894,384.84 973.636,383.896C972.22,382.953 971.276,382.402 970.804,382.245C970.49,381.773 969.861,380.987 968.917,379.886C967.501,378.313 966.086,376.464 964.67,374.341C963.254,372.218 962.704,369.74 963.019,366.909C965.85,364.55 968.445,361.207 970.804,356.882C973.164,352.557 975.68,348.821 978.354,345.675C980.242,343.63 982.68,341.35 985.668,338.833C988.657,336.317 991.724,334.075 994.87,332.109C998.015,330.143 1000.77,328.924 1003.13,328.452C1004.07,328.295 1004.98,328.256 1005.84,328.334C1006.71,328.413 1007.61,328.531 1008.55,328.688C1009.18,328.845 1009.85,328.963 1010.56,329.042C1011.27,329.121 1011.94,329.16 1012.57,329.16C1013.19,330.733 1014.1,331.677 1015.28,331.991C1016.46,332.306 1017.21,332.856 1017.52,333.643C1018.15,336.788 1019.21,339.344 1020.7,341.31C1022.2,343.277 1023.73,345.597 1025.31,348.27C1029.24,347.956 1032.5,346.383 1035.1,343.552C1037.69,340.721 1039.78,338.44 1041.35,336.71C1041.35,334.036 1040.48,330.182 1038.75,325.149C1037.02,320.116 1034.82,314.611 1032.15,308.634C1029.47,302.657 1026.72,296.837 1023.89,291.175C1021.06,285.512 1018.5,280.636 1016.22,276.547C1013.94,272.457 1012.33,269.783 1011.38,268.525C1006.67,274.345 1001.51,281.108 995.931,288.815C990.347,296.523 984.606,304.702 978.708,313.352C972.81,322.003 967.187,330.693 961.839,339.423C956.491,348.153 951.772,356.449 947.683,364.314C944.065,371.235 940.015,378.195 935.532,385.194C931.05,392.193 926.764,398.603 922.674,404.423C920.315,407.726 917.326,411.068 913.709,414.45C910.091,417.831 905.844,419.758 900.968,420.23C903.328,415.511 906.237,409.81 909.698,403.125C913.158,396.44 916.815,389.834 920.669,383.307C924.522,376.779 928.1,371.313 931.404,366.909C931.561,366.28 932.701,363.96 934.825,359.949C936.948,355.938 939.583,351.023 942.728,345.203C945.874,339.384 949.138,333.485 952.52,327.508C955.901,321.531 958.89,316.223 961.485,311.583C964.08,306.943 965.928,303.915 967.029,302.499C967.973,301.084 969.664,298.843 972.102,295.775C974.54,292.708 977.096,289.405 979.77,285.866C982.444,282.327 984.764,279.024 986.73,275.957C988.696,272.89 989.758,270.57 989.915,268.997C991.802,266.638 993.69,264.042 995.577,261.211C997.465,258.38 999.667,256.099 1002.18,254.369C1005.33,252.167 1007.88,251.302 1009.85,251.774C1011.82,252.246 1013.51,252.875 1014.92,253.661C1015.55,253.976 1016.22,254.29 1016.93,254.605C1017.64,254.92 1018.31,255.077 1018.94,255.077C1022.08,258.695 1025.23,262.352 1028.37,266.048C1031.52,269.744 1034.35,273.716 1036.87,277.962C1039.85,285.984 1043.12,293.77 1046.66,301.32C1050.2,308.87 1053.46,316.577 1056.45,324.441C1059.44,332.306 1061.48,340.721 1062.58,349.686ZM1010.68,357.944C1010.05,355.584 1009.14,353.422 1007.96,351.456C1006.78,349.489 1005.8,347.405 1005.01,345.203C999.51,347.877 994.594,351.22 990.269,355.231C985.943,359.241 982.601,364.235 980.242,370.212C981.5,371.471 983.073,371.746 984.96,371.038C986.848,370.33 988.263,369.583 989.207,368.797C989.679,369.74 990.269,370.094 990.977,369.858C991.684,369.622 992.353,369.347 992.982,369.033L994.398,368.325C994.398,369.426 993.965,370.33 993.1,371.038C992.235,371.746 991.331,372.336 990.387,372.808C989.6,373.122 989.011,373.476 988.617,373.869C988.224,374.262 988.421,374.774 989.207,375.403C991.566,373.987 993.847,372.808 996.049,371.864C998.251,370.92 1000.22,370.055 1001.95,369.269C1005.09,367.853 1007.45,366.634 1009.03,365.612C1010.6,364.589 1010.99,363.292 1010.21,361.719C1009.89,361.876 1009.1,362.348 1007.85,363.134C1006.59,363.763 1005.29,364.471 1003.95,365.258C1002.62,366.044 1001.71,366.359 1001.24,366.201C999.981,367.774 998.684,368.482 997.347,368.325C996.01,368.168 995.341,367.302 995.341,365.73C998.487,364.943 1001.16,363.724 1003.36,362.073C1005.57,360.421 1008,359.045 1010.68,357.944ZM1219.95,328.688C1220.74,332.148 1220.93,335.963 1220.54,340.131C1220.15,344.299 1219.56,348.506 1218.77,352.753C1218.3,355.742 1217.87,358.691 1217.47,361.601C1217.08,364.511 1216.88,367.381 1216.88,370.212C1216.88,370.999 1216.73,371.942 1216.41,373.043C1216.1,374.144 1215.78,375.324 1215.47,376.582C1214.84,379.099 1214.29,381.498 1213.82,383.778C1213.34,386.059 1213.74,387.435 1215,387.907C1214.68,389.795 1214.33,392.665 1213.93,396.519C1213.54,400.372 1213.07,404.147 1212.52,407.844C1211.97,411.54 1211.14,414.253 1210.04,415.983C1207.84,415.826 1205.79,415.944 1203.91,416.337C1202.02,416.73 1200.92,417.792 1200.6,419.522C1196.67,417.792 1193.96,415.236 1192.46,411.854C1190.97,408.473 1190.14,404.58 1189.99,400.176C1189.83,397.187 1190.1,393.806 1190.81,390.031C1191.52,386.256 1192.35,382.481 1193.29,378.706C1194.39,373.358 1195.26,368.443 1195.88,363.96C1196.51,359.477 1196.04,356.449 1194.47,354.877C1192.27,356.449 1190.62,358.455 1189.51,360.893C1188.41,363.331 1187.19,365.612 1185.86,367.735C1184.52,369.858 1182.36,371.313 1179.37,372.1C1179.21,375.088 1178.19,378.116 1176.3,381.183C1174.41,384.25 1172.21,387.278 1169.7,390.267C1167.18,393.255 1164.98,396.244 1163.09,399.232C1161.2,402.221 1160.18,405.209 1160.02,408.197C1156.09,410.557 1152.55,413.152 1149.41,415.983C1146.26,418.814 1142.09,421.095 1136.9,422.825C1135.49,421.724 1133.4,420.859 1130.65,420.23C1127.9,419.601 1125.73,419.837 1124.16,420.938C1122.12,420.151 1120.46,419.129 1119.21,417.871C1117.95,416.612 1116.3,415.669 1114.25,415.04C1110.32,409.534 1107.68,403.282 1106.35,396.283C1105.01,389.284 1104.54,382.127 1104.93,374.813C1105.33,367.499 1106.15,360.854 1107.41,354.877C1107.88,352.832 1108.67,351.023 1109.77,349.45C1110.87,347.877 1111.74,346.068 1112.36,344.024C1113.94,339.62 1115.39,334.94 1116.73,329.986C1118.07,325.031 1119.88,320.509 1122.15,316.42C1124.44,312.33 1127.7,309.656 1131.95,308.398C1131.32,315.004 1130.41,321.413 1129.23,327.626C1128.05,333.839 1126.91,339.856 1125.81,345.675C1123.61,356.214 1121.88,366.123 1120.62,375.403C1119.36,384.683 1120.07,393.491 1122.75,401.827C1125.89,402.456 1129.67,401.473 1134.07,398.878C1138.47,396.283 1143.19,392.587 1148.23,387.789C1153.26,382.992 1158.29,377.644 1163.33,371.746C1168.36,365.848 1173.08,359.949 1177.48,354.051C1181.89,348.153 1185.66,342.765 1188.81,337.889C1191.95,333.013 1194.08,329.317 1195.18,326.801C1195.81,322.711 1196.51,319.487 1197.3,317.127C1198.09,314.768 1199.5,311.858 1201.55,308.398C1205.64,307.139 1209.45,307.572 1212.99,309.695C1216.53,311.819 1218.69,314.453 1219.48,317.599C1219.63,318.543 1219.71,319.408 1219.71,320.194L1219.71,322.79C1219.71,323.576 1219.67,324.481 1219.6,325.503C1219.52,326.525 1219.63,327.587 1219.95,328.688ZM1354.2,346.619C1354.67,348.035 1354.94,350.944 1355.02,355.348C1355.1,359.753 1354.98,364.668 1354.67,370.094C1354.35,375.521 1353.92,380.554 1353.37,385.194C1352.82,389.834 1352.07,393.098 1351.13,394.985C1351.13,395.614 1351.21,396.283 1351.36,396.991C1351.52,397.698 1351.68,398.446 1351.84,399.232C1352.31,401.434 1352.7,403.754 1353.02,406.192C1353.33,408.63 1353.25,410.321 1352.78,411.265C1349.79,411.736 1347.31,412.523 1345.35,413.624C1343.38,414.725 1341.53,415.669 1339.8,416.455C1332.88,414.725 1330.29,410.871 1332.02,404.894C1331.86,403.793 1331.66,401.513 1331.43,398.052C1331.19,394.592 1331,390.62 1330.84,386.138C1330.68,381.655 1330.64,377.251 1330.72,372.925C1330.8,368.6 1331.07,365.022 1331.55,362.191C1332.02,359.359 1332.73,358.022 1333.67,358.18C1333.67,356.764 1333.71,354.641 1333.79,351.809C1333.87,348.978 1333.79,345.872 1333.55,342.49C1333.32,339.108 1332.84,335.963 1332.14,333.053C1331.43,330.143 1330.44,328.059 1329.19,326.801C1325.73,329.003 1322.11,331.598 1318.33,334.586C1314.56,337.575 1312.51,341.114 1312.2,345.203C1311.57,345.203 1310.39,346.304 1308.66,348.506C1306.93,350.708 1305,353.343 1302.88,356.41C1300.76,359.477 1298.83,362.348 1297.1,365.022C1295.37,367.696 1294.27,369.504 1293.8,370.448C1293.01,372.021 1292.34,373.673 1291.79,375.403C1291.24,377.133 1289.63,378.549 1286.95,379.65C1287.43,380.593 1287.07,382.717 1285.89,386.02C1284.71,389.323 1283.26,392.94 1281.53,396.873C1279.8,400.805 1278.11,404.344 1276.46,407.49C1274.8,410.635 1273.66,412.523 1273.04,413.152C1271.15,415.04 1268.91,416.494 1266.31,417.517C1263.71,418.539 1260.61,418.972 1256.99,418.814C1256.99,416.927 1256.32,415.708 1254.99,415.158C1253.65,414.607 1252.82,413.467 1252.51,411.736C1254.24,410.793 1255.65,408.945 1256.76,406.192C1257.86,403.439 1258.72,400.569 1259.35,397.58C1259.98,394.592 1260.45,392.469 1260.77,391.21C1264.23,378.627 1267.65,366.162 1271.03,353.815C1274.41,341.468 1279.4,330.104 1286.01,319.723C1286.48,319.093 1287.35,319.054 1288.61,319.605C1289.86,320.155 1290.57,321.767 1290.73,324.441C1290.73,326.958 1290.38,329.71 1289.67,332.699C1288.96,335.687 1288.21,338.676 1287.43,341.664C1286.64,344.338 1285.97,346.894 1285.42,349.332C1284.87,351.77 1284.6,353.933 1284.6,355.82C1286.95,354.09 1289.04,351.731 1290.85,348.742C1292.66,345.754 1294.43,343.237 1296.16,341.192C1298.2,338.676 1301.03,335.569 1304.65,331.873C1308.27,328.177 1312.32,324.559 1316.8,321.02C1321.28,317.481 1325.57,314.768 1329.66,312.881C1330.6,312.409 1332.14,312.133 1334.26,312.055C1336.38,311.976 1338.59,312.015 1340.87,312.173C1343.15,312.33 1344.84,312.566 1345.94,312.881C1348.14,315.554 1349.95,318.307 1351.36,321.138C1352.78,323.969 1353.25,327.351 1352.78,331.283C1352.62,333.171 1352.66,335.609 1352.9,338.597C1353.13,341.586 1353.57,344.26 1354.2,346.619ZM1500.24,270.649C1497.56,274.738 1494.77,279.299 1491.86,284.333C1488.95,289.366 1486.16,294.281 1483.49,299.078C1480.81,303.876 1478.3,308.005 1475.94,311.465L1474.99,312.881C1472.63,314.453 1469.96,317.56 1466.97,322.2C1463.98,326.84 1460.68,331.991 1457.06,337.654C1453.44,343.316 1449.36,348.585 1444.79,353.461C1442.43,353.776 1440.51,354.798 1439.01,356.528C1437.52,358.258 1436.1,360.264 1434.77,362.544C1433.43,364.825 1432.01,366.909 1430.52,368.797C1429.03,370.684 1427.18,371.942 1424.98,372.572C1426.86,364.235 1429.26,356.764 1432.17,350.158C1435.08,343.552 1438.19,337.142 1441.49,330.929C1444.79,324.717 1447.78,318.228 1450.46,311.465L1451.4,309.106C1451.71,308.319 1451.95,307.533 1452.11,306.746C1454.94,306.117 1456.83,304.505 1457.77,301.91C1458.71,299.314 1460.05,297.23 1461.78,295.657C1461.15,294.871 1460.21,295.186 1458.95,296.601L1457.65,297.899C1457.26,298.292 1456.83,298.41 1456.36,298.253C1456.51,297.781 1456.79,297.152 1457.18,296.365C1457.57,295.579 1458.09,294.792 1458.71,294.006C1459.66,292.276 1460.56,290.546 1461.43,288.815C1462.29,287.085 1462.41,285.984 1461.78,285.512C1463.98,281.895 1465.95,278.041 1467.68,273.952C1469.41,269.862 1471.14,265.851 1472.87,261.919C1474.91,261.133 1477,260.346 1479.12,259.56C1481.25,258.773 1483.09,257.829 1484.67,256.728C1487.5,257.043 1490.21,257.594 1492.81,258.38C1495.4,259.166 1497.41,260.503 1498.82,262.391C1500.24,264.278 1500.71,267.031 1500.24,270.649ZM1426.86,395.457C1426.71,396.558 1426.67,397.698 1426.75,398.878C1426.82,400.058 1426.94,401.277 1427.1,402.535C1427.41,405.209 1427.49,407.804 1427.34,410.321C1427.18,412.837 1425.61,415.275 1422.62,417.635C1421.36,418.736 1419.79,419.326 1417.9,419.404L1412.24,419.64C1410.35,419.719 1408.62,420.309 1407.05,421.41C1405,420.938 1403.07,419.955 1401.26,418.461C1399.45,416.966 1397.92,415.197 1396.66,413.152C1396.03,412.051 1395.29,410.478 1394.42,408.433C1393.56,406.389 1393.2,404.147 1393.36,401.709C1393.52,399.271 1394.62,397.187 1396.66,395.457C1397.92,392.626 1399.77,390.66 1402.21,389.559C1404.65,388.458 1407.36,387.907 1410.35,387.907C1413.81,388.065 1417.15,388.812 1420.38,390.149C1423.6,391.486 1425.76,393.255 1426.86,395.457Z" style="fill:white;"/>
        </g>
    </g>
</svg>
