<?xml version="1.0" encoding="UTF-8" standalone="no"?>
<!DOCTYPE svg PUBLIC "-//W3C//DTD SVG 1.1//EN" "http://www.w3.org/Graphics/SVG/1.1/DTD/svg11.dtd">
<svg width="100%" height="100%" viewBox="0 0 24 24" version="1.1" xmlns="http://www.w3.org/2000/svg" xmlns:xlink="http://www.w3.org/1999/xlink" xml:space="preserve" xmlns:serif="http://www.serif.com/" style="fill-rule:evenodd;clip-rule:evenodd;stroke-linejoin:round;stroke-miterlimit:2;">
    <path d="M0.75,21C0.336,21 0,20.664 0,20.25L0,15.25C0,14.285 0.785,13.5 1.75,13.5L6,13.5L6,8.935C3.871,8.573 2.25,6.688 2.25,4.5C2.25,2.019 4.269,0 6.75,0C9.231,0 11.25,2.019 11.25,4.5C11.25,6.688 9.629,8.573 7.5,8.935L7.5,13.5L13.5,13.5L13.5,12.25C13.5,11.285 14.285,10.5 15.25,10.5L19.25,10.5C20.215,10.5 21,11.285 21,12.25L21,13.5L22.25,13.5C23.215,13.5 24,14.285 24,15.25L24,20.25C24,20.664 23.664,21 23.25,21L0.75,21ZM22.5,19.5L22.5,15.25C22.5,15.112 22.388,15 22.25,15L1.75,15C1.612,15 1.5,15.112 1.5,15.25L1.5,19.5L22.5,19.5ZM19.5,13.5L19.5,12.25C19.5,12.112 19.388,12 19.25,12L15.25,12C15.112,12 15,12.112 15,12.25L15,13.5L19.5,13.5ZM6.75,1.5C5.096,1.5 3.75,2.846 3.75,4.5C3.75,6.154 5.096,7.5 6.75,7.5C8.404,7.5 9.75,6.154 9.75,4.5C9.75,2.846 8.404,1.5 6.75,1.5ZM2.25,24C1.836,24 1.5,23.664 1.5,23.25C1.5,22.836 1.836,22.5 2.25,22.5L8.25,22.5C8.664,22.5 9,22.836 9,23.25C9,23.664 8.664,24 8.25,24L2.25,24ZM15.75,24C15.336,24 15,23.664 15,23.25C15,22.836 15.336,22.5 15.75,22.5L21.75,22.5C22.164,22.5 22.5,22.836 22.5,23.25C22.5,23.664 22.164,24 21.75,24L15.75,24Z" style="fill:white;fill-rule:nonzero;"/>
</svg>
