<?xml version="1.0" encoding="UTF-8" standalone="no"?>
<!DOCTYPE svg PUBLIC "-//W3C//DTD SVG 1.1//EN" "http://www.w3.org/Graphics/SVG/1.1/DTD/svg11.dtd">
<svg width="100%" height="100%" viewBox="0 0 24 24" version="1.1" xmlns="http://www.w3.org/2000/svg" xmlns:xlink="http://www.w3.org/1999/xlink" xml:space="preserve" xmlns:serif="http://www.serif.com/" style="fill-rule:evenodd;clip-rule:evenodd;stroke-linejoin:round;stroke-miterlimit:2;">
    <path d="M8.254,5.999C8.054,5.999 7.865,5.921 7.724,5.779L4.724,2.779C4.582,2.638 4.504,2.449 4.504,2.249C4.504,2.049 4.582,1.86 4.724,1.719C4.865,1.577 5.054,1.499 5.254,1.499C5.454,1.499 5.643,1.577 5.784,1.719L8.784,4.719C8.926,4.86 9.004,5.049 9.004,5.249C9.004,5.449 8.926,5.638 8.784,5.779C8.643,5.921 8.454,5.999 8.254,5.999ZM5.254,8.999C4.84,8.999 4.504,8.663 4.504,8.249C4.504,7.835 4.84,7.499 5.254,7.499L6.754,7.499C7.168,7.499 7.504,7.835 7.504,8.249C7.504,8.663 7.168,8.999 6.754,8.999L5.254,8.999ZM11.254,4.499C10.84,4.499 10.504,4.163 10.504,3.749L10.504,2.249C10.504,1.835 10.84,1.499 11.254,1.499C11.668,1.499 12.004,1.835 12.004,2.249L12.004,3.749C12.004,4.163 11.667,4.499 11.254,4.499ZM14.254,16.499C13.84,16.499 13.504,16.163 13.504,15.749C13.504,15.335 13.84,14.999 14.254,14.999L18.754,14.999C20.822,14.999 22.504,13.317 22.504,11.249C22.504,9.181 20.822,7.499 18.754,7.499L14.254,7.499C13.84,7.499 13.504,7.163 13.504,6.749C13.504,6.335 13.84,5.999 14.254,5.999L18.754,5.999C21.649,5.999 24.004,8.354 24.004,11.249C24.004,14.144 21.649,16.499 18.754,16.499L14.254,16.499ZM5.254,22.499C3.852,22.499 2.533,21.953 1.542,20.961C-0.505,18.914 -0.505,15.584 1.542,13.536L4.194,10.884C4.336,10.742 4.524,10.664 4.724,10.664C4.924,10.664 5.113,10.742 5.254,10.884C5.396,11.026 5.474,11.214 5.474,11.414C5.474,11.614 5.396,11.803 5.254,11.944L2.602,14.596C1.14,16.058 1.14,18.437 2.602,19.899C3.31,20.607 4.252,20.997 5.254,20.997C6.256,20.997 7.197,20.607 7.906,19.899L10.558,17.247C10.7,17.105 10.888,17.027 11.088,17.027C11.288,17.027 11.477,17.105 11.618,17.247C11.91,17.539 11.91,18.015 11.618,18.308L8.966,20.96C7.975,21.953 6.656,22.499 5.254,22.499Z" style="fill:white;fill-rule:nonzero;"/>
</svg>
