<?xml version="1.0" encoding="UTF-8" standalone="no"?>
<!DOCTYPE svg PUBLIC "-//W3C//DTD SVG 1.1//EN" "http://www.w3.org/Graphics/SVG/1.1/DTD/svg11.dtd">
<svg width="100%" height="100%" viewBox="0 0 24 24" version="1.1" xmlns="http://www.w3.org/2000/svg" xmlns:xlink="http://www.w3.org/1999/xlink" xml:space="preserve" xmlns:serif="http://www.serif.com/" style="fill-rule:evenodd;clip-rule:evenodd;stroke-linejoin:round;stroke-miterlimit:2;">
    <g transform="matrix(1,0,0,1,0.75,0)">
        <path d="M8.258,12.75C7.017,12.75 6.008,11.741 6.008,10.5C6.008,9.259 7.017,8.25 8.258,8.25C9.499,8.25 10.508,9.259 10.508,10.5C10.508,11.741 9.499,12.75 8.258,12.75ZM8.258,9.75C7.844,9.75 7.508,10.086 7.508,10.5C7.508,10.914 7.844,11.25 8.258,11.25C8.672,11.25 9.008,10.914 9.008,10.5C9.008,10.086 8.672,9.75 8.258,9.75ZM14.258,12.75C13.017,12.75 12.008,11.741 12.008,10.5C12.008,9.259 13.017,8.25 14.258,8.25C15.499,8.25 16.508,9.259 16.508,10.5C16.508,11.741 15.499,12.75 14.258,12.75ZM14.258,9.75C13.844,9.75 13.508,10.086 13.508,10.5C13.508,10.914 13.844,11.25 14.258,11.25C14.672,11.25 15.008,10.914 15.008,10.5C15.008,10.086 14.672,9.75 14.258,9.75Z" style="fill:white;fill-rule:nonzero;"/>
    </g>
    <g transform="matrix(1,0,0,1,0.75,0)">
        <path d="M3.043,15.683C1.287,15.35 0,13.818 0,12C0,10.185 1.285,8.655 3.036,8.319C3.134,7.473 3.512,6.689 4.12,6.087C4.57,5.641 5.124,5.318 5.732,5.145C6.567,3.188 8.4,1.812 10.508,1.546L10.508,0.75C10.508,0.336 10.844,0 11.258,0C11.672,0 12.008,0.336 12.008,0.75L12.008,1.548C12.416,1.6 12.818,1.693 13.206,1.827C14.813,2.381 16.101,3.582 16.766,5.14C17.24,5.273 17.676,5.494 18.064,5.798C18.854,6.417 19.355,7.307 19.475,8.303C19.476,8.309 19.476,8.316 19.477,8.322C21.221,8.664 22.5,10.193 22.5,12C22.5,13.809 21.219,15.338 19.474,15.679M18.008,14.25L18.003,9.054C18.001,9.038 18,9.019 18,9C18,8.988 18.001,8.966 18.003,8.948L18.003,8.736C18.002,8.652 17.997,8.566 17.987,8.484C17.915,7.885 17.614,7.35 17.139,6.978C16.737,6.663 16.258,6.497 15.752,6.497C15.66,6.497 15.567,6.503 15.475,6.514C14.077,6.666 12.657,6.742 11.252,6.742C9.848,6.742 8.431,6.665 7.04,6.515C6.948,6.504 6.862,6.498 6.775,6.498L6.765,6.123L6.765,6.498C6.166,6.498 5.602,6.73 5.176,7.152C4.748,7.576 4.511,8.142 4.508,8.745L4.508,14.25L18.008,14.25ZM3.008,9.879C2.124,10.189 1.5,11.036 1.5,12C1.5,12.963 2.125,13.811 3.01,14.121L3.008,9.879ZM19.508,14.115C20.382,13.799 21,12.955 21,12C21,11.042 20.381,10.198 19.504,9.884L19.508,14.115ZM7.474,5.052C8.721,5.178 9.991,5.242 11.252,5.242C12.51,5.242 13.78,5.178 15.029,5.052C14.487,4.21 13.682,3.577 12.717,3.245C12.239,3.08 11.744,2.997 11.246,2.997C10.563,2.997 9.901,3.151 9.277,3.455C8.531,3.818 7.916,4.365 7.474,5.052Z" style="fill:white;fill-rule:nonzero;"/>
    </g>
    <g transform="matrix(1,0,0,1,3.75891,2.17498)">
        <path d="M0,20.25L-0,12.122L1.5,12.122L1.5,19.5L14.999,19.5L14.999,12.122L16.499,12.122L16.499,20.25C16.499,20.664 16.163,21 15.749,21L0.75,21C0.336,21 0,20.664 0,20.25Z" style="fill:white;"/>
    </g>
    <g transform="matrix(1,0,0,1,0.75,-0.0138211)">
        <circle cx="8.25" cy="18.75" r="1" style="fill:white;"/>
    </g>
    <g transform="matrix(1,0,0,1,0.75,-0.0138211)">
        <circle cx="11.25" cy="18.75" r="1" style="fill:white;"/>
    </g>
    <g transform="matrix(1,0,0,1,0.75,-0.0138211)">
        <circle cx="14.25" cy="18.75" r="1" style="fill:white;"/>
    </g>
</svg>
