<?xml version="1.0" standalone="no"?>
<!DOCTYPE svg PUBLIC "-//W3C//DTD SVG 20010904//EN"
 "http://www.w3.org/TR/2001/REC-SVG-20010904/DTD/svg10.dtd">
<svg version="1.0" xmlns="http://www.w3.org/2000/svg"
 width="1024.000000pt" height="1024.000000pt" viewBox="0 0 1024.000000 1024.000000"
 preserveAspectRatio="xMidYMid meet">
<metadata>
Created by potrace 1.14, written by Peter Selinger 2001-2017
</metadata>
<g transform="translate(0.000000,1024.000000) scale(0.100000,-0.100000)"
fill="#000000" stroke="none">
<path d="M5078 8668 c-14 -18 -94 -131 -179 -251 -226 -321 -338 -479 -355
-502 -17 -23 -1115 -1569 -1268 -1785 -56 -80 -192 -271 -301 -425 -109 -154
-247 -349 -307 -432 l-108 -153 511 -2 510 -3 -446 -595 c-246 -327 -455 -604
-465 -616 -9 -12 -21 -28 -26 -36 -5 -9 -21 -31 -36 -49 -34 -43 -543 -723
-552 -737 -4 -7 384 -10 1246 -10 689 -1 1265 -1 1280 -1 l27 -1 -2 -765 c-2
-674 0 -765 13 -766 40 -4 1007 -5 1017 -1 8 3 11 193 11 763 0 418 2 762 5
766 4 3 574 6 1267 6 706 0 1260 3 1260 8 0 7 -61 92 -159 219 -10 14 -78 104
-149 200 -72 96 -135 180 -139 185 -8 9 -88 115 -125 167 -19 26 -337 449
-367 488 -10 14 -145 194 -300 400 l-281 375 510 5 510 5 -27 35 c-16 19 -38
49 -49 66 -27 38 -966 1346 -1084 1509 -48 66 -136 190 -197 275 -61 85 -128
178 -148 205 -20 28 -99 138 -176 245 -77 107 -147 204 -155 215 -61 85 -191
266 -434 605 -155 217 -288 401 -295 408 -10 11 -17 8 -37 -20z"/>
</g>
</svg>
